<svg width="82" height="18" viewBox="0 0 82 18" fill="none" xmlns="http://www.w3.org/2000/svg">
<path d="M0.046875 15.3906C0.046875 14.6719 0.286458 14.0885 0.765625 13.6406C1.25521 13.1927 1.86458 12.9688 2.59375 12.9688C3.33333 12.9688 3.94271 13.1927 4.42188 13.6406C4.91146 14.0885 5.15625 14.6719 5.15625 15.3906C5.15625 16.099 4.91667 16.6771 4.4375 17.125C3.95833 17.5625 3.34375 17.7812 2.59375 17.7812C1.85417 17.7812 1.24479 17.5625 0.765625 17.125C0.286458 16.6771 0.046875 16.099 0.046875 15.3906Z" fill="#E1E1E6"/>
<path d="M13.2812 0.703125L13.4219 2.65625C14.6302 1.14583 16.25 0.390625 18.2812 0.390625C20.0729 0.390625 21.4062 0.916667 22.2812 1.96875C23.1562 3.02083 23.6042 4.59375 23.625 6.6875V17.6094H19.1094V6.79688C19.1094 5.83854 18.901 5.14583 18.4844 4.71875C18.0677 4.28125 17.375 4.0625 16.4062 4.0625C15.1354 4.0625 14.1823 4.60417 13.5469 5.6875V17.6094H9.03125V0.703125H13.2812Z" fill="#E1E1E6"/>
<path d="M34.8438 17.9219C32.3646 17.9219 30.3438 17.1615 28.7812 15.6406C27.2292 14.1198 26.4531 12.0938 26.4531 9.5625V9.125C26.4531 7.42708 26.7812 5.91146 27.4375 4.57812C28.0938 3.23438 29.0208 2.20312 30.2188 1.48438C31.4271 0.755208 32.8021 0.390625 34.3438 0.390625C36.6562 0.390625 38.474 1.11979 39.7969 2.57812C41.1302 4.03646 41.7969 6.10417 41.7969 8.78125V10.625H31.0312C31.1771 11.7292 31.6146 12.6146 32.3438 13.2812C33.0833 13.9479 34.0156 14.2812 35.1406 14.2812C36.8802 14.2812 38.2396 13.651 39.2188 12.3906L41.4375 14.875C40.7604 15.8333 39.8438 16.5833 38.6875 17.125C37.5312 17.6562 36.25 17.9219 34.8438 17.9219ZM34.3281 4.04688C33.4323 4.04688 32.7031 4.34896 32.1406 4.95312C31.5885 5.55729 31.2344 6.42188 31.0781 7.54688H37.3594V7.1875C37.3385 6.1875 37.0677 5.41667 36.5469 4.875C36.026 4.32292 35.2865 4.04688 34.3281 4.04688Z" fill="#E1E1E6"/>
<path d="M59.0781 11.4688L61.2969 0.703125H65.6562L61.3438 17.6094H57.5625L54.3594 6.96875L51.1562 17.6094H47.3906L43.0781 0.703125H47.4375L49.6406 11.4531L52.7344 0.703125H56L59.0781 11.4688Z" fill="#E1E1E6"/>
<path d="M77.0625 12.9375C77.0625 12.3854 76.7865 11.9531 76.2344 11.6406C75.6927 11.3177 74.8177 11.0312 73.6094 10.7812C69.5885 9.9375 67.5781 8.22917 67.5781 5.65625C67.5781 4.15625 68.1979 2.90625 69.4375 1.90625C70.6875 0.895833 72.3177 0.390625 74.3281 0.390625C76.474 0.390625 78.1875 0.895833 79.4688 1.90625C80.7604 2.91667 81.4062 4.22917 81.4062 5.84375H76.8906C76.8906 5.19792 76.6823 4.66667 76.2656 4.25C75.849 3.82292 75.1979 3.60938 74.3125 3.60938C73.5521 3.60938 72.9635 3.78125 72.5469 4.125C72.1302 4.46875 71.9219 4.90625 71.9219 5.4375C71.9219 5.9375 72.1562 6.34375 72.625 6.65625C73.1042 6.95833 73.9062 7.22396 75.0312 7.45312C76.1562 7.67188 77.1042 7.92188 77.875 8.20312C80.2604 9.07812 81.4531 10.5938 81.4531 12.75C81.4531 14.2917 80.7917 15.5417 79.4688 16.5C78.1458 17.4479 76.4375 17.9219 74.3438 17.9219C72.9271 17.9219 71.6667 17.6719 70.5625 17.1719C69.4688 16.6615 68.6094 15.9688 67.9844 15.0938C67.3594 14.2083 67.0469 13.2552 67.0469 12.2344H71.3281C71.3698 13.0365 71.6667 13.651 72.2188 14.0781C72.7708 14.5052 73.5104 14.7188 74.4375 14.7188C75.3021 14.7188 75.9531 14.5573 76.3906 14.2344C76.8385 13.901 77.0625 13.4688 77.0625 12.9375Z" fill="#E1E1E6"/>
</svg>
